<svg xmlns="http://www.w3.org/2000/svg" width="430" height="430" style="width:100%;height:100%;transform:translate3d(0,0,0);content-visibility:visible" viewBox="0 0 430 430"><defs><clipPath id="p"><path d="M0 0h430v430H0z"/></clipPath><clipPath id="w"><path d="M0 0h430v430H0z"/></clipPath><clipPath id="j"><path d="M0 0h430v430H0z"/></clipPath><clipPath id="t"><path d="M0 0h430v430H0z"/></clipPath><clipPath id="l"><path d="M0 0h430v430H0z"/></clipPath><clipPath id="q"><path d="M0 0h430v430H0z"/></clipPath><clipPath id="n"><path d="M0 0h430v430H0z"/></clipPath><filter id="a" width="100%" height="100%" x="0%" y="0%" filterUnits="objectBoundingBox"><feComponentTransfer in="SourceGraphic"><feFuncA tableValues="1.0 0.0" type="table"/></feComponentTransfer></filter><filter id="x" width="300%" height="300%" x="-100%" y="-100%"><feGaussianBlur result="filter_result_0"/></filter><filter id="d" width="100%" height="100%" x="0%" y="0%" filterUnits="objectBoundingBox"><feComponentTransfer in="SourceGraphic"><feFuncA tableValues="1.0 0.0" type="table"/></feComponentTransfer></filter><filter id="v" width="300%" height="300%" x="-100%" y="-100%"><feGaussianBlur result="filter_result_0" stdDeviation="52.5 52.5"/></filter><filter id="g" width="100%" height="100%" x="0%" y="0%" filterUnits="objectBoundingBox"><feComponentTransfer in="SourceGraphic"><feFuncA tableValues="1.0 0.0" type="table"/></feComponentTransfer></filter><filter id="r" width="300%" height="300%" x="-100%" y="-100%"><feGaussianBlur result="filter_result_0"/></filter><mask id="k" mask-type="alpha"><g filter="url(#a)"><path fill="#fff" d="M0 0h430v430H0z" opacity="0"/><use xmlns:ns1="http://www.w3.org/1999/xlink" ns1:href="#b"/></g></mask><mask id="y" mask-type="alpha"><use xmlns:ns2="http://www.w3.org/1999/xlink" ns2:href="#c"/></mask><mask id="m" mask-type="alpha"><g filter="url(#d)"><path fill="#fff" d="M0 0h430v430H0z" opacity="0"/><use xmlns:ns3="http://www.w3.org/1999/xlink" ns3:href="#e"/></g></mask><mask id="u" mask-type="alpha"><use xmlns:ns4="http://www.w3.org/1999/xlink" ns4:href="#f"/></mask><mask id="o" mask-type="alpha"><g filter="url(#g)"><path fill="#fff" d="M0 0h430v430H0z" opacity="0"/><use xmlns:ns5="http://www.w3.org/1999/xlink" ns5:href="#h"/></g></mask><mask id="s" mask-type="alpha"><use xmlns:ns6="http://www.w3.org/1999/xlink" ns6:href="#i"/></mask><path id="b" style="display:none"/><path id="e" d="M91.923 326.539c0 11.52-2.19 22.53-6.18 32.63-15.39-2.89-27.03-16.4-27.03-32.63 0-16.23 11.64-29.74 27.03-32.63 3.99 10.1 6.18 21.11 6.18 32.63z" style="display:block" transform="translate(210.805 -83.898)"/><path id="h" style="display:none"/><g id="c" fill-opacity="0" stroke-linecap="round" stroke-linejoin="round" clip-path="url(#j)" style="display:none"><g style="display:none"><path class="primary"/><path class="primary"/></g><g mask="url(#k)" style="display:none"><path class="secondary"/><path class="secondary"/></g><g style="display:none"><path class="secondary"/><path class="primary"/></g><g style="display:none"><path class="secondary"/><path class="secondary"/><path class="secondary"/></g></g><g id="f" clip-path="url(#l)" style="display:block"><path fill-opacity="0" stroke="#121331" stroke-linecap="round" stroke-linejoin="round" stroke-width="12" d="M348.433 376.397H81.567V53.603h266.866v322.794zM81.567 108.893h266.866" class="primary" style="display:block"/><g fill-opacity="0" stroke-linecap="round" stroke-linejoin="round" stroke-width="12" style="display:block"><path stroke="#08A88A" d="M302.728 242.641c0 11.52-2.19 22.53-6.18 32.63-15.39-2.89-27.03-16.4-27.03-32.63 0-16.23 11.64-29.74 27.03-32.63 3.99 10.1 6.18 21.11 6.18 32.63z" class="secondary"/><path stroke="#121331" d="M297.702 213.173c3.818 10.869 5.4 21.983 4.982 32.834-1.34 35.415-23.942 68.081-59.408 80.538-46.344 16.277-97.101-8.101-113.375-54.436s8.095-97.088 54.439-113.365c35.466-12.457 73.53-1.099 96.718 25.691 7.112 8.207 12.827 17.869 16.644 28.738z" class="primary"/></g><path fill-opacity="0" stroke="#08A88A" stroke-linecap="round" stroke-linejoin="round" stroke-width="12" d="M111.511 82.841h23.641m44.973.013h.277M203 82.832h.277m93.306.009h23.64m-163.098.023h.277" class="secondary" style="display:block"/><g mask="url(#m)" style="display:block"><path fill-opacity="0" stroke="#08A88A" stroke-linecap="round" stroke-linejoin="round" stroke-width="12" d="M154.137 232.521c2.924-17.137 13.175-32.592 28.559-41.788m22.561-8a60.677 60.677 0 0 1 2.796-.336" class="secondary"/></g></g><g id="i" fill-opacity="0" stroke-linecap="round" stroke-linejoin="round" clip-path="url(#n)" style="display:none"><g style="display:none"><path class="primary"/><path class="primary"/></g><g style="display:none"><path class="secondary"/><path class="primary"/></g><g style="display:none"><path class="secondary"/><path class="secondary"/><path class="secondary"/></g><g mask="url(#o)" style="display:none"><path class="secondary"/><path class="secondary"/></g></g></defs><g clip-path="url(#p)"><g clip-path="url(#q)" filter="url(#r)" mask="url(#s)" style="display:none"><g class="design"><path class="primary"/></g><g class="design"><path class="secondary"/></g></g><g clip-path="url(#t)" mask="url(#u)" style="display:block"><g filter="url(#v)" transform="rotate(-94 238.295 -17.065) scale(2.4)"><g class="design"><path fill="#4BE1EC" d="M0-250c137.975 0 250 112.025 250 250S137.975 250 0 250-250 137.975-250 0-137.975-250 0-250z" class="primary"/></g><g class="design"><path fill="#CB5EEE" d="M113.242-295.384c97.478 0 176.5 79.022 176.5 176.5s-79.022 176.5-176.5 176.5c-43.948 0-74.396-34.057-105.29-60.631-37.631-32.369-71.21-62.338-71.21-115.869 0-97.478 79.022-176.5 176.5-176.5z" class="secondary"/></g></g></g><g clip-path="url(#w)" filter="url(#x)" mask="url(#y)" style="display:none"><g class="design"><path class="primary"/></g><g class="design"><path class="secondary"/></g></g></g></svg>